<svg width="748" height="238" viewBox="0 0 748 238" fill="none" xmlns="http://www.w3.org/2000/svg">
<path d="M697.604 5.75917C694.459 2.25862 688.909 2.24483 685.747 5.72974C682.072 9.77939 678.928 14.1241 676.317 18.6792C671.115 17.1966 665.685 16.2251 660.092 15.8243C655.427 15.4901 651.285 19.2019 651.637 24.0392C652.023 29.3516 652.992 34.5118 654.482 39.4604C649.758 41.9249 645.244 44.8969 641.028 48.3768C637.306 51.4481 637.292 57.0013 640.998 60.0911C645.197 63.5917 649.696 66.586 654.407 69.0739C652.892 74.0149 651.898 79.1701 651.485 84.4803C651.108 89.3158 655.231 93.0481 659.898 92.7371C665.493 92.3641 670.928 91.4195 676.137 89.9628C678.725 94.5311 681.848 98.8915 685.502 102.96C688.647 106.46 694.197 106.474 697.359 102.989C701.035 98.939 704.179 94.5939 706.79 90.0383C711.992 91.5208 717.421 92.4923 723.015 92.8931C727.68 93.2272 731.821 89.5154 731.469 84.6782C731.083 79.3662 730.114 74.2064 728.625 69.2582C733.348 66.7937 737.862 63.8217 742.079 60.342C745.8 57.2706 745.814 51.7174 742.108 48.6276C737.909 45.1269 733.41 42.1324 728.699 39.6445C730.213 34.7036 731.208 29.5485 731.621 24.2384C731.997 19.4029 727.874 15.6706 723.208 15.9816C717.612 16.3546 712.178 17.2991 706.969 18.7558C704.381 14.1875 701.259 9.82716 697.604 5.75917Z" fill="#F2C1FB" stroke="black" stroke-width="6"/>
<path d="M671.433 62.7072L682.713 73.332C684.885 75.3787 688.296 75.3116 690.388 73.181L712.723 50.4273C715.647 47.449 715.459 42.6243 712.314 39.8827C709.424 37.3635 705.071 37.5307 702.382 40.2644L686.188 56.7237L681.358 52.1728C678.575 49.5499 674.23 49.547 671.442 52.1662L673.496 54.3526L671.442 52.1662C668.402 55.0216 668.398 59.8481 671.433 62.7072Z" fill="#81F052" stroke="black" stroke-width="6"/>
<path d="M0 189.707L0 54.4878H53.4094C61.1353 54.4878 68.1222 56.0332 74.3701 59.1239C80.618 62.1502 85.5558 66.4644 89.1837 72.0663C92.8787 77.6683 94.7262 84.2361 94.7262 91.7697C94.7262 94.6029 94.3567 97.597 93.6177 100.752C92.8787 103.843 91.5686 106.74 89.6875 109.445C87.8064 112.149 85.1192 114.274 81.6257 115.819C86.1269 116.85 89.6875 118.781 92.3076 121.615C94.9277 124.448 96.876 127.732 98.1524 131.466C99.496 135.136 100.369 138.871 100.772 142.67C101.176 146.405 101.377 149.785 101.377 152.812C101.377 159.637 99.4625 165.851 95.6331 171.453C91.8037 176.99 86.6644 181.433 80.2149 184.781C73.7655 188.065 66.6442 189.707 58.8511 189.707H0ZM30.2317 165.174H55.6264C59.1199 165.174 62.2774 164.402 65.099 162.856C67.9878 161.247 70.272 159.057 71.9516 156.289C73.6983 153.52 74.5716 150.365 74.5716 146.823C74.5716 143.861 73.6983 141.06 71.9516 138.42C70.272 135.716 67.9878 133.527 65.099 131.853C62.2774 130.178 59.1199 129.341 55.6264 129.341H30.2317V165.174ZM30.2317 105.195H49.7816C53.8125 105.195 57.2724 103.907 60.1612 101.332C63.05 98.756 64.4944 95.5043 64.4944 91.5765C64.4944 87.5843 63.05 84.5258 60.1612 82.4009C57.2724 80.2761 53.8125 79.2136 49.7816 79.2136H30.2317V105.195Z" fill="black"/>
<path d="M185.676 93.1219H215.908V189.707H185.576L184.165 181.014C181.679 184.363 178.522 187.067 174.692 189.128C170.93 191.188 166.53 192.218 161.491 192.218C153.967 192.218 146.913 190.866 140.329 188.162C133.812 185.457 128.068 181.723 123.097 176.958C118.125 172.129 114.229 166.591 111.407 160.345C108.653 154.035 107.275 147.274 107.275 140.062C107.275 133.173 108.586 126.734 111.206 120.745C113.826 114.757 117.487 109.509 122.19 105.002C126.96 100.43 132.435 96.8565 138.616 94.2809C144.864 91.7053 151.548 90.4175 158.669 90.4175C164.447 90.4175 169.687 91.5765 174.39 93.8946C179.16 96.1482 183.392 98.9814 187.087 102.394L185.676 93.1219ZM160.685 164.402C164.85 164.402 168.646 163.372 172.072 161.311C175.498 159.251 178.219 156.482 180.235 153.005C182.25 149.528 183.258 145.664 183.258 141.415C183.258 137.165 182.25 133.301 180.235 129.824C178.219 126.347 175.498 123.578 172.072 121.518C168.646 119.457 164.85 118.427 160.685 118.427C156.52 118.427 152.724 119.457 149.298 121.518C145.939 123.578 143.251 126.347 141.236 129.824C139.288 133.301 138.313 137.165 138.313 141.415C138.313 145.664 139.321 149.528 141.337 153.005C143.352 156.482 146.039 159.251 149.398 161.311C152.825 163.372 156.587 164.402 160.685 164.402Z" fill="black"/>
<path d="M328.748 127.989V189.707H298.516V136.102C298.516 133.076 297.744 130.339 296.199 127.893C294.654 125.381 292.604 123.417 290.052 122.001C287.499 120.52 284.643 119.779 281.486 119.779C278.328 119.779 275.44 120.52 272.819 122.001C270.267 123.417 268.218 125.381 266.672 127.893C265.194 130.339 264.455 133.076 264.455 136.102V189.707H234.224L234.123 93.1219H264.355L264.455 99.2068C267.814 96.438 271.644 94.2809 275.943 92.7356C280.243 91.1902 284.778 90.4175 289.548 90.4175C296.803 90.4175 303.387 92.1239 309.299 95.5365C315.211 98.8848 319.914 103.392 323.407 109.058C326.968 114.725 328.748 121.035 328.748 127.989Z" fill="black"/>
<path d="M416.838 93.1219H447.069V190.673C447.069 198.013 445.524 204.581 442.434 210.376C439.411 216.236 435.245 221.226 429.938 225.347C424.631 229.468 418.517 232.591 411.597 234.716C404.745 236.905 397.489 238 389.831 238C382.709 238 375.89 236.68 369.374 234.04C362.857 231.464 357.046 227.858 351.94 223.222C346.834 218.586 342.803 213.21 339.847 207.093L367.459 195.116C368.87 198.013 370.717 200.46 373.002 202.456C375.286 204.517 377.872 206.094 380.761 207.189C383.65 208.284 386.673 208.831 389.831 208.831C393.324 208.831 396.683 208.477 399.908 207.769C403.132 207.06 406.021 205.966 408.574 204.485C411.127 203.004 413.143 201.104 414.621 198.786C416.099 196.533 416.838 193.828 416.838 190.673V181.208C413.814 184.492 410.22 187.164 406.055 189.224C401.957 191.22 397.221 192.218 391.846 192.218C384.523 192.218 377.671 190.898 371.288 188.258C364.906 185.618 359.263 181.98 354.359 177.344C349.522 172.644 345.726 167.235 342.971 161.118C340.217 155.001 338.84 148.433 338.84 141.415C338.84 134.396 340.217 127.828 342.971 121.711C345.726 115.594 349.522 110.217 354.359 105.581C359.263 100.881 364.906 97.2107 371.288 94.5707C377.671 91.9307 384.523 90.6107 391.846 90.6107C397.221 90.6107 401.957 91.6409 406.055 93.7014C410.22 95.6975 413.814 98.3375 416.838 101.621V93.1219ZM392.249 164.402C396.414 164.402 400.21 163.372 403.636 161.311C407.063 159.251 409.783 156.482 411.799 153.005C413.814 149.528 414.822 145.664 414.822 141.415C414.822 137.165 413.814 133.301 411.799 129.824C409.783 126.347 407.063 123.578 403.636 121.518C400.21 119.457 396.414 118.427 392.249 118.427C388.151 118.427 384.389 119.457 380.963 121.518C377.603 123.578 374.916 126.347 372.901 129.824C370.885 133.301 369.878 137.165 369.878 141.415C369.878 145.664 370.885 149.528 372.901 153.005C374.916 156.482 377.603 159.251 380.963 161.311C384.389 163.372 388.151 164.402 392.249 164.402Z" fill="black"/>
<path d="M510.617 192.218C501.346 192.218 492.881 189.933 485.223 185.361C477.631 180.789 471.551 174.64 466.983 166.913C462.482 159.186 460.231 150.655 460.231 141.318C460.231 134.299 461.541 127.732 464.161 121.615C466.781 115.433 470.376 110.024 474.944 105.388C479.579 100.688 484.954 97.0175 491.067 94.3775C497.181 91.7375 503.698 90.4175 510.617 90.4175C518.679 90.4175 526.036 92.1239 532.687 95.5365C539.405 98.8848 545.048 103.457 549.616 109.252C554.252 114.982 557.544 121.454 559.492 128.665C561.44 135.877 561.642 143.314 560.097 150.976H492.881C493.822 153.23 495.065 155.291 496.61 157.158C498.222 158.961 500.171 160.41 502.455 161.504C504.806 162.599 507.527 163.178 510.617 163.243C513.573 163.307 516.294 162.695 518.78 161.408C521.333 160.12 523.55 158.381 525.431 156.192L556.267 163.05C552.169 171.614 546.056 178.632 537.927 184.105C529.798 189.514 520.695 192.218 510.617 192.218ZM491.773 129.728H529.563C528.622 126.959 527.211 124.512 525.33 122.387C523.449 120.262 521.232 118.588 518.679 117.365C516.193 116.141 513.506 115.53 510.617 115.53C507.796 115.53 505.108 116.141 502.556 117.365C500.07 118.588 497.886 120.262 496.005 122.387C494.191 124.512 492.781 126.959 491.773 129.728Z" fill="black"/>
<path d="M574.189 189.707L574.088 93.1219H604.32L604.421 99.2068C607.78 96.438 611.609 94.2809 615.909 92.7356C620.209 91.1902 624.743 90.4175 629.513 90.4175C633.141 90.4175 636.836 90.9326 640.598 91.9629L628.707 121.325C626.356 120.295 623.937 119.779 621.451 119.779C618.294 119.779 615.405 120.52 612.785 122.001C610.232 123.417 608.183 125.381 606.638 127.893C605.16 130.339 604.421 133.076 604.421 136.102V189.707H574.189Z" fill="black"/>
</svg>
