<?xml version="1.0" encoding="iso-8859-1"?>
<!-- Generator: Adobe Illustrator 26.0.0, SVG Export Plug-In . SVG Version: 6.00 Build 0)  -->
<svg version="1.1" id="Layer_1" xmlns="http://www.w3.org/2000/svg" xmlns:xlink="http://www.w3.org/1999/xlink" x="0px" y="0px"
	 viewBox="0 0 638.643 307.995" enable-background="new 0 0 638.643 307.995" xml:space="preserve">
<path id="_x23_FFFFFF" fill="#FFFFFF" d="M637.859,189.491l0.004,0.006c-2.587-15.725-12.958-38.821-47.749-59.601
	c-2.35-1.404-4.818-2.771-7.361-4.116c6.509-2.187,13.237-4.443,13.237-4.443l-38.558-15.018c-3.301-1.287-6.761-2.444-10.265-3.57
	l5.237-5.312L522.838,93.3c-12.776-1.791-22.852-2.203-30.573-2.09c-0.075-1.243-0.172-2.39-0.301-3.419
	c0-0.011-4.937-36.988-4.937-36.988s-11.439,15.603-12.577,17.152c-2.431-4.046-5.189-7.852-8.355-11.427
	c0-0.005-31.888-36.024-31.888-36.024s1.272,10.596,2.291,19.054c-10.34-7.204-21.709-13.64-34.287-19.027
	C350.904-1.452,286.022-6.022,224.194,7.982C172.478,19.695,97.811,50.244,35.794,129.21L0,174.79l53.877-21.44
	c0.429-0.172,42.019-16.369,75.559-21.091c12.508-1.763,22.085-1.903,14.311,15.211c-6.127,13.507-20.046,33.221-20.191,33.419
	l-26.979,39.196l45.002-15.608c21.646-7.52,41.074-11.224,50.899-11.572c3.509,0.065,4.153,2.379,3.047,4.899
	c-0.317,0.874-0.499,1.329-2.93,5.06l-28.218,40.231l46.284-16.562c33.589-12.038,77.749-19.966,93.545-13.936
	c1.288,0.488,5.462,2.701,1.325,8.763l-18.179,28.889c0,0,26.839-4.069,30.654-4.657c2.109,26.381,15.356,40.767,16.988,42.428
	l19.498,19.976l6.847-27.051c4.915-19.467,14.176-30.075,22.439-35.852c0,0.011,1.588,11.116,1.588,11.116l18.077-6.513
	c15.196-5.489,27.225-12.08,35.885-19.601c11.456-0.905,39.443-2.572,66.325,0.086c46.333,4.577,77.411-1.576,85.836-3.575
	c11.267-2.664,20.765,2.145,20.867,2.197l13.774,7.483l7.431-13.936c0.88-1.672,5.081-10.371,5.081-23.268
	C638.643,195.885,638.385,192.659,637.859,189.491z"/>
<g id="_x23_FFFFFF_00000133530126990967125610000002803461463978196654_">
	<path fill="#FFFFFF" d="M413.044,120.706c-1.725-1.087-3.111-2.611-3.907-4.482h0c-2.145-5.067,0.955-10.764,6.907-12.7
		c2.298-0.745,4.681-0.828,6.858-0.348c-2.972-1.877-7-2.461-10.775-1.231c-5.968,1.931-9.062,7.617-6.907,12.718
		C406.535,117.787,409.542,119.956,413.044,120.706z"/>
	<path fill="#FFFFFF" d="M575.775,152.841c-35.58-23.696-90.246-27.571-90.246-27.571l13.812,11.121l-25.696-2.224l20.342,14.691
		c-13.537-4.422-41.297-13.497-72.049-16.854c0.098,0.011,0.196,0.019,0.294,0.03c-38.374-4.377-57.58,2.621-57.58,2.621
		s47.626-2.791,77.853,13.945c0.001,0.001-5.537-0.864-8.245-1.233c-84.866-11.574-129.007,17.84-129.007,17.84
		c50.789-14.487,91.326-10.489,104.634-8.506c0.001,0-5.536,1.849-6.818,3.091c-6.922,6.704,13.008,18.9,25.975,25.789
		c1.295,3.181,5.642,10.133,1.914,20.168c1.141-1.511,5.071-6.987,7.928-14.316l12.496,10.023
		c37.302-4.598,64.818,3.254,95.703,3.104v0c22.213-0.123,38.836-2.122,51.913-5.172c-48.264-20.661-142.759-29.5-157.397-28.305
		c0,0-8,2.251,1.207,11.084c-12.878-5.065-25.734-14.719-26.625-19.607c-0.94-5.193,8.467-6.646,30.74-4.03
		c83.403,9.84,155.588,23.786,165.343,44.197C612.267,202.725,617.359,177.174,575.775,152.841z"/>
	<path fill="#FFFFFF" d="M637.859,189.491l0.004,0.006c-2.587-15.725-12.958-38.821-47.749-59.601
		c-2.35-1.404-4.818-2.771-7.361-4.116c6.509-2.187,13.237-4.443,13.237-4.443l-38.558-15.018c-3.301-1.287-6.761-2.444-10.265-3.57
		l5.237-5.312L522.838,93.3c-12.776-1.791-22.852-2.203-30.573-2.09c-0.075-1.243-0.172-2.39-0.301-3.419
		c0-0.011-4.937-36.988-4.937-36.988s-11.439,15.603-12.577,17.152c-2.431-4.046-5.189-7.852-8.355-11.427
		c0-0.005-31.888-36.024-31.888-36.024s1.272,10.596,2.291,19.054c-10.34-7.204-21.709-13.64-34.287-19.027
		C350.904-1.452,286.022-6.022,224.194,7.982C172.478,19.695,97.811,50.244,35.794,129.21L0,174.79l53.877-21.44
		c0.429-0.172,42.019-16.369,75.559-21.091c12.508-1.763,22.085-1.903,14.311,15.211c-6.127,13.507-20.046,33.221-20.191,33.419
		l-26.979,39.196l45.002-15.608c21.646-7.52,41.074-11.224,50.899-11.572c3.509,0.065,4.153,2.379,3.047,4.899
		c-0.317,0.874-0.499,1.329-2.93,5.06l-28.218,40.231l46.284-16.562c33.589-12.038,77.749-19.966,93.545-13.936
		c1.288,0.488,5.462,2.701,1.325,8.763l-18.179,28.889c0,0,26.839-4.069,30.654-4.657c2.109,26.381,15.356,40.767,16.988,42.428
		l19.498,19.976l6.847-27.051c4.915-19.467,14.176-30.075,22.439-35.852c0,0.011,1.588,11.116,1.588,11.116l18.077-6.513
		c15.196-5.489,27.225-12.08,35.885-19.601c11.456-0.905,39.443-2.572,66.325,0.086c46.333,4.577,77.411-1.576,85.836-3.575
		c11.267-2.664,20.765,2.145,20.867,2.197l13.774,7.483l7.431-13.936c0.88-1.672,5.081-10.371,5.081-23.268
		C638.643,195.885,638.385,192.659,637.859,189.491z M628.033,219.502l-3.192,5.976l-5.945-3.243
		c-0.129-0.063-12.298-6.532-27.274-2.996c-8.129,1.929-38.151,7.863-83.319,3.393c-30.671-3.022-62.613-0.611-71.332,0.15
		c-5.826,5.627-16.439,13.126-35.392,19.959l-7.727,2.787c0,0-1.507-10.531-1.808-12.686c-10.828,3.817-30.257,15.072-38.466,47.584
		l-2.93,11.583l-8.343-8.544c-0.681-0.707-14.825-15.559-14.825-43.489c0-1.077,0.074-2.224,0.117-3.355l-7.067,1.094l-14.444,2.203
		l7.78-12.376c0.339-0.515,7.916-12.789-0.193-19.001c-17.529-13.42-74.239-0.429-105.87,10.902l-19.799,7.075l12.078-17.189
		c1.952-2.798,7.254-12.124,6.068-18.276c-0.36-1.844-1.283-3.162-2.994-4.282c-7.409-4.839-39.373,1.672-64.726,10.478
		l-19.241,6.667l11.537-16.75c0.14-0.214,14.134-20.582,20.981-34.769c5.002-10.338,6.038-19.161,2.817-23.62
		c-3.451-4.759-12.878-6.373-26.534-4.561c-34.829,4.652-77.675,21.605-78.104,21.771l-23.035,9.176l15.298-19.493
		C102.86,58.373,175.881,28.482,226.448,17.028c60.331-13.661,123.55-9.251,173.408,12.108
		c21.978,9.417,38.011,20.721,49.595,31.472l-1.46-12.156l12.888,14.563c7.179,8.125,11.113,16.375,13.511,23.031
		c1.046-1.432,8.301-11.331,8.301-11.331l2.002,14.938c0.252,1.912,0.343,4.277,0.343,6.678c0,1.714-0.054,3.414-0.124,5.021
		c7.464-0.697,20.148-0.991,38.521,1.576l11.927,1.677c0,0-1.738,1.774-3.343,3.398c8.355,2.01,16.457,4.487,24.168,7.493
		l15.566,6.067l-11.332,3.806c9.407,3.704,18.7,8.062,27.258,13.153c32.001,19.124,41.44,39.716,43.731,53.645l0-0.001
		c0.478,2.906,0.676,5.639,0.676,8.179C632.084,211.65,628.237,219.127,628.033,219.502z"/>
	<path fill="#FFFFFF" d="M244.611,83.984c14.381-13.193,32.527-15.415,36.175-15.179c-4.244,6.979-8.483,15.029-14.16,28.798
		c0,0,24.673-1.742,41.562,2.203c12.836,2.998,16.901,7.056,18.952,13.138c1.353,4.011,1.128,9.075-0.767,13.159
		c-0.639,1.376-1.86,3.392-2.883,5.008c2.269-0.631,4.513-1.215,6.707-1.725c2.597-4.006,4.183-8.962,3.687-13.496
		c-0.938-8.576-7.955-15.929-18.755-18.74c-1.455-0.379-2.977-0.675-4.56-0.881c0.003-0.001,3.021-0.7,4.528-1.13
		c15.737-4.486,31.242-14.576,34.636-22.196c1.295-2.906,2.464-6.43,2.483-10.093c0.048-9.36-7.419-19.64-39.554-22.918
		c-44.715-4.555-118.842,8.12-155.745,39.502c26.439-4.517,51.722-10.937,104.929-13.473c0.004,0,1.328,0,1.333-0.001
		c-7.92,2.691-19.117,7.306-24.703,14.113c-7.932,7.865-30.248,61.401-37.006,77.883c-1.246,3.04-1.964,4.82-1.964,4.82
		s20.849-2.615,40.854-4.132c5.192-0.394,16.673-0.872,26.433-1.239c2.592-1.808,5.284-3.549,8.041-5.232
		c-8.821,0.207-33.437-0.144-66.39,4.5C219.017,123.068,232.516,95.08,244.611,83.984z M294.828,91.033
		c-3.225,0.954-6.81,1.506-10.629,1.506h-8.016c4.963-11.417,8.929-18.385,11.681-22.533c2.839-4.288,4.429-5.553,4.429-5.553
		l8.977-0.026c8.639,0.916,12.744,7.616,7.389,16.958c-2.284,3.955-7.049,7.391-12.911,9.373
		C295.357,90.89,295.134,90.944,294.828,91.033z M179.735,71.731c38.022-18.54,82.625-23.544,91.861-24.307
		c21.697-1.793,31.199-1.434,41.557-0.616c37.723,2.976,34.413,19.441,31.875,24.736c-3.476,7.252-18.601,16.609-35.269,20.164
		c-2.787,0.594-11.15,2.374-11.15,2.374c9.673-3.934,13.004-7.75,15.844-11.373c5.153-6.573,4.4-11.952,1.658-16.438
		c-2.646-4.337-9.547-6.428-16.988-6.534c-5.489-0.078-11.495-0.327-21.957,0.042C252.284,60.678,212.986,63.642,179.735,71.731z"/>
	<path fill="#FFFFFF" d="M283.362,101.093c-4.59,0-18.361,0-18.361,0H265c0,0-9.937,18.143-18.968,46.765
		c0,0,22.997-0.835,24.498-0.981c7.51-0.732,21.127-4.087,27.357-17.976c3.875-8.64,4.43-15.537,1.304-20.657
		C297.195,104.973,292.838,101.093,283.362,101.093z M293.111,125.982c-4.028,8.659-11.257,13.137-18.118,14.387c0,0,0,0,0,0h-0.001
		c-3.026,0.767-5.95,1.035-8.413,1.035H255.15c0,0,4.562-14.212,11.906-29.765c0.014-0.03,0.06-0.127,0.06-0.127
		c0.901-1.902,1.867-3.862,2.847-5.784h13.231C293.836,105.728,299.754,111.708,293.111,125.982z"/>
</g>
<g id="_x23_9D7D2D">
	<path fill="#9D7D2D" d="M631.408,192.167l0,0.001c-2.291-13.929-11.729-34.522-43.731-53.645
		c-8.558-5.091-17.852-9.449-27.258-13.153l11.332-3.806l-15.566-6.067c-7.711-3.006-15.813-5.483-24.168-7.493
		c1.605-1.625,3.343-3.398,3.343-3.398l-11.927-1.677c-18.373-2.567-31.056-2.272-38.521-1.576c0.07-1.607,0.124-3.307,0.124-5.021
		c0-2.4-0.091-4.765-0.343-6.678l-2.002-14.938c0,0-7.254,9.899-8.301,11.331c-2.398-6.657-6.332-14.906-13.511-23.031
		l-12.888-14.563l1.46,12.156c-11.584-10.752-27.617-22.055-49.595-31.472C349.998,7.777,286.779,3.367,226.448,17.028
		C175.881,28.482,102.86,58.373,42.147,135.671l-15.298,19.493l23.035-9.176c0.429-0.166,43.274-17.119,78.104-21.771
		c13.656-1.812,23.083-0.198,26.534,4.561c3.22,4.459,2.184,13.281-2.817,23.62c-6.847,14.187-20.841,34.555-20.981,34.769
		l-11.537,16.75l19.241-6.667c25.353-8.806,57.317-15.318,64.726-10.478c1.712,1.12,2.634,2.439,2.994,4.282
		c1.186,6.152-4.116,15.479-6.068,18.276l-12.078,17.189l19.799-7.075c31.63-11.331,88.34-24.322,105.87-10.902
		c8.108,6.212,0.532,18.486,0.193,19.001l-7.78,12.376l14.444-2.203l7.067-1.094c-0.044,1.131-0.117,2.278-0.117,3.355
		c0,27.93,14.144,42.782,14.825,43.489l8.343,8.544l2.93-11.583c8.21-32.512,27.638-43.768,38.466-47.584
		c0.301,2.155,1.808,12.686,1.808,12.686l7.727-2.787c18.952-6.833,29.565-14.332,35.392-19.959
		c8.719-0.761,40.661-3.173,71.332-0.15c45.168,4.47,75.19-1.464,83.319-3.393c14.976-3.537,27.145,2.932,27.274,2.996l5.945,3.243
		l3.192-5.976c0.205-0.375,4.051-7.852,4.051-19.155C632.084,197.806,631.886,195.073,631.408,192.167z M618.528,214.266
		c0,0-6.412-4.711-11.82-4.76c-7.368-0.049-30.424,7.712-75.029,5.279c-30.622-1.667-57.595-7-97.318-0.761
		c-5.043,5.939-13.865,13.147-32.623,19.922l-2.42-9.873c-11.194,1.838-42.814,11.545-51.881,47.987c0,0-12.475-17.805-5.35-45.681
		l-21.973,4.748c0,0,12.578-17.639,1.776-30.251c-23.233-27.18-100.688-4.009-100.688-4.009
		c32.392-50.452-70.21-14.134-70.21-14.134s15.254-19.745,23.958-42.251c8.655-22.393,2.882-35.679-20.872-35.122
		c-45.339,1.083-78.065,17.42-78.065,17.42C160.168,14.204,313.477-1.194,400.481,39.427c32.007,14.955,48.936,32.069,57.832,45.452
		l-1.873-16.406c10.098,9.122,13.072,22.565,13.844,31.859c5.853-4.449,8.268-11.609,8.268-11.609
		c1.062,8.307,0.22,14.53-0.816,18.604c8.241-0.858,22.134-1.115,42.035,2.273l-4.067,3.645c10.865,1.683,22.547,4.352,33.734,8.624
		c0,0-7.282-0.156-14.552,2.192c17.46,4.909,35.456,11.776,48.817,21.214l0.003,0C637.067,183.007,618.528,214.266,618.528,214.266z
		"/>
	<path fill="#9D7D2D" d="M313.153,46.807c-10.358-0.817-19.86-1.177-41.557,0.616c-9.236,0.763-53.84,5.767-91.861,24.307
		c33.251-8.088,72.549-11.052,97.43-11.952c10.462-0.37,16.468-0.12,21.957-0.042c7.441,0.106,14.342,2.197,16.988,6.534
		c2.742,4.486,3.496,9.865-1.658,16.438c-2.84,3.623-6.171,7.439-15.844,11.373c0,0,8.363-1.78,11.15-2.374
		c16.668-3.554,31.792-12.911,35.269-20.164C347.566,66.248,350.877,49.784,313.153,46.807z"/>
	<path fill="#9D7D2D" d="M308.189,99.806c-16.889-3.945-41.562-2.203-41.562-2.203c5.677-13.77,9.916-21.82,14.16-28.798
		c-3.649-0.236-21.795,1.986-36.175,15.179c-12.095,11.096-25.594,39.084-36.165,72.69c32.952-4.645,57.569-4.293,66.39-4.5
		c15.285-9.327,32.755-16.643,48.656-21.064c1.023-1.616,2.244-3.632,2.883-5.008c1.895-4.083,2.12-9.148,0.767-13.159
		C325.089,106.862,321.025,102.804,308.189,99.806z M297.887,128.9c-6.229,13.889-19.847,17.244-27.357,17.976
		c-1.501,0.146-24.498,0.981-24.498,0.981C255.063,119.236,265,101.093,265,101.093h0.001c0,0,13.771,0,18.361,0
		c9.475,0,13.832,3.88,15.828,7.15C302.317,113.363,301.762,120.26,297.887,128.9z"/>
</g>
<g id="_x23_010101">
	<path fill="#010101" d="M583.705,145.273l-0.003,0c-13.361-9.438-31.357-16.305-48.817-21.214
		c7.27-2.348,14.552-2.192,14.552-2.192c-11.187-4.272-22.869-6.942-33.734-8.624l4.067-3.645
		c-19.901-3.388-33.793-3.13-42.035-2.273c1.036-4.074,1.878-10.296,0.816-18.604c0,0-2.415,7.161-8.268,11.609
		c-0.772-9.293-3.745-22.737-13.844-31.859l1.873,16.406c-8.896-13.383-25.825-30.497-57.832-45.452
		c-87.005-40.622-240.314-25.223-324.47,83.351c0,0,32.726-16.336,78.065-17.42c23.755-0.557,29.527,12.73,20.872,35.122
		c-8.703,22.506-23.958,42.251-23.958,42.251s102.602-36.318,70.21,14.134c0,0,77.454-23.171,100.688,4.009
		c10.802,12.612-1.776,30.251-1.776,30.251l21.973-4.748c-7.125,27.876,5.35,45.681,5.35,45.681
		c9.068-36.442,40.688-46.148,51.881-47.987l2.42,9.873c18.758-6.775,27.58-13.984,32.623-19.922
		c39.723-6.238,66.696-0.905,97.318,0.761c44.604,2.434,67.661-5.328,75.029-5.279c5.408,0.049,11.82,4.76,11.82,4.76
		S637.067,183.007,583.705,145.273z M612.267,202.725c-9.755-20.41-81.94-34.357-165.343-44.197
		c-22.273-2.616-31.679-1.163-30.74,4.03c0.891,4.888,13.747,14.542,26.625,19.607c-9.208-8.833-1.207-11.084-1.207-11.084
		c14.638-1.196,109.133,7.644,157.397,28.305c-13.077,3.05-29.7,5.049-51.913,5.172v0c-30.885,0.15-58.4-7.702-95.703-3.104
		l-12.496-10.023c-2.857,7.329-6.787,12.805-7.928,14.316c-0.027,0.073-0.045,0.143-0.073,0.216
		c-5.107,13.385-21.382,16.653-21.382,16.653c6.68-16.872-1.481-28.921-1.481-28.921s-5.65,17.387-30.15,27.613
		c-26.866,11.235-31.035,27.619-31.035,27.619s-0.977-14.976,13.221-30.728c4.561-5.081,7.914-9.305,10.034-13.003l-30.038,8.222
		c20.148-58.502-96.142-34.973-96.142-34.973c5.824-7.604,13.777-14.69,22.881-21.039c-9.759,0.367-21.24,0.845-26.433,1.239
		c-20.005,1.517-40.854,4.132-40.854,4.132l-17.648,2.845c0,0,30.427-48.607,10.345-69.281
		c-17.268-17.778-74.829,0.317-74.829,0.317c54.602-52.234,151.002-80.55,245.557-57.377c4.469,1.095,19.736,5.59,22.726,6.611
		c86.322,29.47,72.653,81.191,72.653,81.191s-7.802,0.494-17.004-16.69c-8.688-16.219-21.522-18.299-21.522-18.299
		s9.481-0.874,22.794,4.92c0,0-18.705-28.032-72.104-25.871c0,0,26.936,3.312,38.344,18.357c0,0-36.277-5.708-68.907,11.159
		c0,0,29.103-4.808,51.425,10.216c0,0-33.471-2.503-51.843,16.546c16.35-3.018,54.827-10.367,82.738,4.615
		c-0.098-0.011-0.196-0.019-0.294-0.03c30.753,3.357,58.512,12.432,72.049,16.854l-20.342-14.691l25.696,2.224l-13.812-11.121
		c0,0,54.666,3.875,90.246,27.571C617.359,177.174,612.267,202.725,612.267,202.725z M420.01,122.687
		c-7.475,2.434-15.786-0.923-18.555-7.472c-2.769-6.555,1.052-13.84,8.527-16.256c7.47-2.428,15.786,0.917,18.555,7.477
		C431.306,112.986,427.49,120.259,420.01,122.687z"/>
	<path fill="#010101" d="M417.597,106.03c-4.158,1.485-6.332,5.869-4.823,9.792c1.508,3.934,6.096,5.902,10.265,4.417
		c4.169-1.495,6.332-5.885,4.818-9.808v-0.001C426.354,106.501,421.765,104.528,417.597,106.03z"/>
	<path fill="#010101" d="M301.27,64.427l-8.977,0.026c0,0-1.591,1.265-4.429,5.553c7.178,0.063,11.428,2.542,11.587,7.936
		c0.072,2.452-0.701,5.506-2.428,9.208l0,0c0,0,0,0.001,0,0.001c-0.692,1.501-2.195,3.881-2.195,3.881
		c0.306-0.089,0.529-0.143,0.92-0.275c5.862-1.982,10.627-5.417,12.911-9.373C314.014,72.043,309.909,65.343,301.27,64.427z"/>
	<path fill="#010101" d="M283.195,105.728h-13.231c-0.981,1.922-1.946,3.882-2.847,5.784h4.48c3.994,0,7.321,0.841,9.57,2.645
		c0.07,0.056,0.125,0.126,0.193,0.184c0.295,0.252,0.584,0.51,0.838,0.798c2.817,3.192,3.054,8.596-0.676,16.621
		c-1.696,3.64-3.966,6.443-6.53,8.608c0.001,0,0.003-0.001,0.004-0.001c-0.001,0.001-0.002,0.001-0.002,0.002
		c6.861-1.25,14.09-5.728,18.118-14.387C299.754,111.708,293.836,105.728,283.195,105.728z"/>
</g>
<g id="_x23_2B296F">
	<path fill="#2B296F" d="M385.658,45.89c-2.99-1.021-18.256-5.515-22.726-6.611c-94.555-23.173-190.955,5.144-245.557,57.377
		c0,0,57.561-18.095,74.829-0.317c20.082,20.674-10.345,69.281-10.345,69.281l17.648-2.845c0,0,0.718-1.781,1.964-4.82
		c6.758-16.482,29.074-70.018,37.006-77.883c5.586-6.807,16.784-11.422,24.703-14.113c-0.004,0-1.328,0-1.333,0.001
		c-53.207,2.536-78.49,8.956-104.929,13.473c36.903-31.382,111.031-44.058,155.745-39.502c32.135,3.278,39.602,13.558,39.554,22.918
		c-0.019,3.664-1.188,7.187-2.483,10.093c-3.395,7.62-18.9,17.71-34.636,22.196c-1.507,0.43-4.525,1.129-4.528,1.13
		c1.583,0.206,3.105,0.502,4.56,0.881c10.801,2.811,17.818,10.165,18.755,18.74c0.496,4.535-1.091,9.49-3.687,13.496
		c-2.194,0.51-4.438,1.094-6.707,1.725c-15.901,4.421-33.371,11.737-48.656,21.064c-2.757,1.682-5.449,3.424-8.041,5.232
		c-9.104,6.35-17.057,13.435-22.881,21.039c0,0,116.29-23.529,96.142,34.973l30.038-8.222c-2.119,3.698-5.473,7.922-10.034,13.003
		c-14.197,15.752-13.221,30.728-13.221,30.728s4.169-16.384,31.035-27.619c24.5-10.226,30.15-27.613,30.15-27.613
		s8.161,12.049,1.481,28.921c0,0,16.275-3.268,21.382-16.653c0.028-0.074,0.046-0.143,0.073-0.216
		c3.727-10.035-0.619-16.987-1.914-20.168c-12.967-6.888-32.898-19.085-25.975-25.789c1.282-1.241,6.819-3.09,6.818-3.091
		c-13.308-1.984-53.845-5.981-104.634,8.506c0,0,44.141-29.414,129.007-17.84c2.708,0.369,8.246,1.234,8.245,1.233
		c-30.227-16.736-77.853-13.945-77.853-13.945s19.206-6.998,57.58-2.621c-27.911-14.982-66.389-7.633-82.738-4.615
		c18.371-19.05,51.843-16.546,51.843-16.546c-22.321-15.023-51.425-10.216-51.425-10.216c32.629-16.867,68.907-11.159,68.907-11.159
		c-11.407-15.045-38.344-18.357-38.344-18.357c53.399-2.16,72.104,25.871,72.104,25.871c-13.313-5.793-22.794-4.92-22.794-4.92
		s12.834,2.08,21.522,18.299c9.202,17.184,17.004,16.69,17.004,16.69S471.98,75.36,385.658,45.89z"/>
	<path fill="#2B296F" d="M287.864,70.006c-2.752,4.148-6.717,11.116-11.681,22.533h8.016c3.819,0,7.403-0.552,10.629-1.506
		c0,0,1.503-2.381,2.195-3.881c0,0,0-0.001,0-0.001l0,0c1.727-3.703,2.5-6.756,2.428-9.208
		C299.291,72.548,295.042,70.069,287.864,70.006z"/>
	<path fill="#2B296F" d="M267.116,111.512c0,0-0.046,0.097-0.06,0.127c-7.343,15.553-11.906,29.765-11.906,29.765h11.429
		c2.463,0,5.387-0.268,8.413-1.035h0.001c0,0,0,0,0,0c0.001-0.001,0.002-0.001,0.002-0.002c-0.001,0-0.003,0.001-0.004,0.001
		c2.564-2.166,4.834-4.969,6.53-8.608c3.73-8.025,3.493-13.429,0.676-16.621c-0.254-0.288-0.543-0.546-0.838-0.798
		c-0.068-0.058-0.123-0.128-0.193-0.184c-2.249-1.804-5.576-2.645-9.57-2.645H267.116z"/>
</g>
<path id="_x23_C62032" fill="#C62032" d="M409.982,98.959c-7.475,2.416-11.295,9.701-8.527,16.256
	c2.769,6.55,11.08,9.906,18.555,7.472c7.48-2.428,11.295-9.701,8.527-16.251C425.768,99.876,417.451,96.531,409.982,98.959z
	 M405.22,114.662c-2.155-5.101,0.939-10.787,6.907-12.718c3.774-1.23,7.802-0.646,10.775,1.231c-2.177-0.48-4.56-0.397-6.858,0.348
	c-5.951,1.937-9.051,7.634-6.907,12.7h0c0.796,1.871,2.183,3.395,3.907,4.482C409.542,119.956,406.535,117.787,405.22,114.662z
	 M423.038,120.239c-4.169,1.485-8.756-0.483-10.265-4.417c-1.508-3.923,0.665-8.307,4.823-9.792c4.169-1.502,8.758,0.471,10.259,4.4
	v0.001C429.37,114.354,427.207,118.744,423.038,120.239z"/>
<g>
</g>
<g>
</g>
<g>
</g>
<g>
</g>
<g>
</g>
</svg>
